<svg width="14" height="20" viewBox="0 0 14 20" fill="none" xmlns="http://www.w3.org/2000/svg">
<path d="M5 1V2.4C5 2.96005 5 3.24008 5.10899 3.45399C5.20487 3.64215 5.35785 3.79513 5.54601 3.89101C5.75992 4 6.03995 4 6.6 4H7.4C7.96005 4 8.24008 4 8.45399 3.89101C8.64215 3.79513 8.79513 3.64215 8.89101 3.45399C9 3.24008 9 2.96005 9 2.4V1M4.2 19H9.8C10.9201 19 11.4802 19 11.908 18.782C12.2843 18.5903 12.5903 18.2843 12.782 17.908C13 17.4802 13 16.9201 13 15.8V4.2C13 3.0799 13 2.51984 12.782 2.09202C12.5903 1.71569 12.2843 1.40973 11.908 1.21799C11.4802 1 10.9201 1 9.8 1H4.2C3.0799 1 2.51984 1 2.09202 1.21799C1.71569 1.40973 1.40973 1.71569 1.21799 2.09202C1 2.51984 1 3.07989 1 4.2V15.8C1 16.9201 1 17.4802 1.21799 17.908C1.40973 18.2843 1.71569 18.5903 2.09202 18.782C2.51984 19 3.07989 19 4.2 19Z" stroke="black" stroke-width="2" stroke-linecap="round" stroke-linejoin="round"/>
</svg>
