<svg width="398" height="214" viewBox="0 0 398 214" fill="none" xmlns="http://www.w3.org/2000/svg">
<rect width="398" height="214" rx="22" fill="#C2EBEC"/>
<path fill-rule="evenodd" clip-rule="evenodd" d="M197.895 214C197.895 214 256.489 199.139 266.439 194.383C276.389 189.628 270.861 165.255 281.917 165.255C292.972 165.255 321.164 189.628 338.3 189.628C355.436 189.628 363.728 134.344 370.914 134.344C378.1 134.344 382.522 165.255 389.156 165.255C395.789 165.255 398 123.05 398 123.05V194C398 205.045 389.046 214 378 214H197.895Z" fill="#E6E1FF"/>
<path fill-rule="evenodd" clip-rule="evenodd" d="M0 76.6833V20C0 8.9543 8.95431 0 20 0H172.467C172.467 0 144.275 46.3667 129.903 38.6389C115.531 30.9111 111.566 15.5125 91.7611 21.9944C71.956 28.4764 78.5253 55.4103 66.3333 59.4444C54.1414 63.4786 38.6944 37.45 30.9556 42.8C23.2167 48.15 21.3952 81.5432 17.6889 85.6C13.9826 89.6568 0 76.6833 0 76.6833Z" fill="#E6E1FF"/>
<path d="M196.313 1.03343L177.364 33.445" stroke="#E6E1FF" stroke-width="2" stroke-linecap="round" stroke-linejoin="round"/>
<path d="M193.647 28.8412L178.749 52.4522" stroke="#E6E1FF" stroke-width="2" stroke-linecap="round" stroke-linejoin="round"/>
<path d="M222.216 90.8447C222.489 90.8447 222.736 91.0031 222.851 91.25L227.274 100.761C227.375 100.978 227.358 101.231 227.229 101.433C227.1 101.634 226.878 101.756 226.639 101.756H217.794C217.555 101.756 217.333 101.634 217.205 101.433C217.076 101.231 217.059 100.978 217.16 100.761L221.582 91.25C221.696 91.0032 221.944 90.8449 222.216 90.8447Z" stroke="#E6E1FF" stroke-width="1.4" stroke-linejoin="round"/>
<ellipse cx="248.75" cy="42.7999" rx="22.1111" ry="5.94444" stroke="#E6E1FF" stroke-width="2"/>
</svg>
