<svg width="19" height="19" viewBox="0 0 19 19" fill="none" xmlns="http://www.w3.org/2000/svg">
<path d="M7.75 1.74677H3.95C2.8299 1.74677 2.26984 1.74677 1.84202 1.96475C1.46569 2.1565 1.15973 2.46246 0.967987 2.83879C0.75 3.26661 0.75 3.82666 0.75 4.94677V14.5468C0.75 15.6669 0.75 16.2269 0.967987 16.6547C1.15973 17.0311 1.46569 17.337 1.84202 17.5288C2.26984 17.7468 2.8299 17.7468 3.95 17.7468H13.55C14.6701 17.7468 15.2302 17.7468 15.658 17.5288C16.0343 17.337 16.3403 17.0311 16.532 16.6547C16.75 16.2269 16.75 15.6669 16.75 14.5468V10.2468M12.25 3.24677L15.0784 6.07519M7.51274 7.98403L14.161 1.33579C14.942 0.554739 16.2084 0.554737 16.9894 1.33579C17.7705 2.11683 17.7705 3.38316 16.9894 4.16421L10.1274 11.0262C9.3658 11.7878 8.98497 12.1686 8.5512 12.4715C8.16618 12.7403 7.75093 12.963 7.31398 13.135C6.8217 13.3288 6.29378 13.4353 5.23793 13.6483L4.75 13.7468L4.79745 13.4146C4.96536 12.2392 5.04932 11.6515 5.24029 11.1029C5.40975 10.616 5.64125 10.153 5.92906 9.72533C6.25341 9.24335 6.67319 8.82358 7.51274 7.98403Z" stroke="black" stroke-opacity="0.8" stroke-width="1.5" stroke-linecap="round" stroke-linejoin="round"/>
</svg>
