<svg width="181" height="156" viewBox="0 0 181 156" fill="none" xmlns="http://www.w3.org/2000/svg">
<path d="M164.419 102.065H17.9488C15.0077 102.065 12.3606 99.7119 12.0665 96.7707L6.77236 7.65303C6.47824 4.41774 9.1253 1.47656 12.3606 1.47656H170.008C173.243 1.47656 175.89 4.12362 175.596 7.65303L170.302 96.7707C170.302 99.7119 167.655 102.065 164.419 102.065Z" fill="#9747FF"/>
<path d="M156.489 92.6631H27.3718C24.7247 92.6631 22.6659 90.6043 22.6659 87.9573L21.1953 20.8984C21.1953 18.2514 23.2541 15.8984 25.9012 15.8984H157.96C160.607 15.8984 162.666 18.2514 162.666 20.8984L161.195 87.9573C161.195 90.6043 159.136 92.6631 156.489 92.6631Z" fill="white"/>
<path d="M175.3 154.418H7.0647C3.8294 154.418 1.47646 150.889 2.35882 146.771C12.3588 89.1241 10.3 103.536 11.4765 87.9476C11.4765 87.6535 11.7706 87.3594 12.0647 87.3594C25.3 87.9476 167.653 87.3594 170.3 87.3594C170.594 87.3594 170.888 87.6535 170.888 87.9476C170.3 93.5358 177.065 129.712 180.006 146.771C180.888 151.183 178.829 154.418 175.3 154.418Z" fill="#7F56D9"/>
<path d="M12.3612 89.7197C11.4789 89.7197 10.8906 89.1314 10.8906 88.2491C10.8906 87.3667 11.4789 86.7785 12.3612 86.7785C12.6553 86.7785 171.185 86.4844 170.891 86.4844C171.773 86.4844 172.361 87.0726 172.361 87.955C172.361 88.8373 171.773 89.1314 170.891 89.4256L12.3612 89.7197Z" fill="black"/>
<path d="M86.7762 10.0115H78.5409C77.6585 10.0115 77.0703 9.42325 77.0703 8.5409C77.0703 7.65855 77.6585 7.07031 78.5409 7.07031H86.7762C87.6585 7.07031 88.2468 7.65855 88.2468 8.5409C88.2468 9.42325 87.6585 10.0115 86.7762 10.0115Z" fill="black"/>
<path d="M94.4237 9.71691C93.5414 9.71691 92.9531 9.12868 92.9531 8.24632V7.65809C92.9531 6.77574 93.5414 6.1875 94.4237 6.1875C95.3061 6.1875 95.8943 6.77574 95.8943 7.65809V8.24632C95.8943 8.83456 95.3061 9.71691 94.4237 9.71691Z" fill="black"/>
<path d="M124.425 105.894H51.1893C50.307 105.894 49.7188 105.306 49.7188 104.424C49.7188 103.541 50.307 102.953 51.1893 102.953H124.719C125.601 102.953 126.189 103.541 126.189 104.424C126.189 105.306 125.307 105.894 124.425 105.894Z" fill="black"/>
<path d="M132.649 119.426H25.8847C25.0023 119.426 24.4141 118.837 24.4141 117.955C24.4141 117.073 25.0023 116.484 25.8847 116.484H132.649C133.532 116.484 134.12 117.073 134.12 117.955C134.12 118.837 133.238 119.426 132.649 119.426Z" fill="black"/>
<path d="M53.83 155.892C52.9476 155.892 52.3594 155.303 52.3594 154.421C52.3594 150.303 52.9476 146.774 53.83 142.656C54.4182 139.715 56.7711 137.656 59.7123 137.656H113.242C116.183 137.656 118.83 140.009 119.124 142.95C120.006 147.656 120.301 150.597 120.889 153.833C120.889 154.715 120.595 155.303 119.712 155.597C118.83 155.597 118.242 155.303 117.948 154.421C117.654 152.068 117.359 150.009 116.183 143.539C115.889 142.068 114.712 140.892 112.948 140.892C108.536 140.892 59.1241 140.892 59.4182 140.892C57.9476 140.892 56.477 142.068 56.1829 143.539C55.3006 147.362 54.7123 150.892 54.7123 154.715C55.3006 155.303 54.7123 155.892 53.83 155.892Z" fill="black"/>
<path d="M57.9393 126.479C57.057 126.479 56.4688 125.597 56.4688 125.009L57.9393 99.4205C57.9393 97.3617 60.8805 97.6558 60.8805 99.7147L59.4099 125.303C59.4099 125.891 58.5276 126.479 57.9393 126.479Z" fill="black"/>
<path d="M92.369 125.6L90.8984 100.894C90.8984 99.1291 93.8396 98.835 93.8396 100.6L95.3102 125.306C95.6043 127.364 92.6631 127.659 92.369 125.6Z" fill="black"/>
<path d="M120.01 124.131C119.127 124.131 118.539 123.542 118.539 122.66V111.189C118.539 110.307 119.127 109.719 120.01 109.719C120.892 109.719 121.48 110.307 121.48 111.189V122.66C121.48 123.542 120.892 124.131 120.01 124.131Z" fill="black"/>
<path d="M1.17647 150.602C0.294118 150.308 0 149.72 0 148.838L7.64706 110.308C7.94118 108.249 10.8824 109.132 10.5882 110.896L2.94118 149.426C2.94118 150.308 2.05882 150.602 1.17647 150.602Z" fill="black"/>
<path d="M9.12775 47.9509C8.2454 47.9509 7.65717 47.3627 7.65717 46.4803C5.30422 4.71561 4.42187 4.71561 6.77481 2.36266C9.42187 -0.284394 7.65717 0.00972284 170.892 0.00972284C171.775 0.00972284 172.363 0.597958 172.363 1.48031C172.363 2.36266 171.775 2.9509 170.892 2.9509C34.716 3.24502 29.716 2.9509 11.4807 3.83325C8.53952 4.12737 7.95128 4.42149 8.2454 7.65678L10.5983 46.4803C10.5983 47.3627 10.0101 47.9509 9.12775 47.9509Z" fill="black"/>
</svg>
