<svg width="22" height="18" viewBox="0 0 22 18" fill="none" xmlns="http://www.w3.org/2000/svg">
<path fill-rule="evenodd" clip-rule="evenodd" d="M6.49369 0.0451549C6.65926 -0.0150516 6.84074 -0.0150516 7.00631 0.0451549L12.5063 2.04516C12.7781 2.144 12.9689 2.39034 12.9966 2.67824C13.0242 2.96615 12.8839 3.24431 12.6359 3.39312L10.5 4.67464V6.13889C10.5 8.24538 8.84654 10 6.75 10C4.65346 10 3 8.24538 3 6.13889V4.67464L2 4.07464V6.75C2 7.16421 1.66421 7.5 1.25 7.5C0.835787 7.5 0.5 7.16421 0.5 6.75V2.75C0.5 2.43462 0.697301 2.15293 0.993693 2.04516L6.49369 0.0451549ZM8.92766 6.22357C8.95232 6.2303 8.97571 6.23695 8.99786 6.2435C8.94538 7.52252 7.93506 8.5 6.75 8.5C5.56494 8.5 4.55462 7.52252 4.50214 6.2435C4.52429 6.23695 4.54768 6.2303 4.57234 6.22357C4.95371 6.11956 5.63547 6 6.75 6C7.86453 6 8.54629 6.11956 8.92766 6.22357ZM2.98581 2.91684L4.13587 3.60688C4.36178 3.74242 4.5 3.98655 4.5 4.25V4.69869C5.02521 4.58714 5.7538 4.5 6.75 4.5C7.7462 4.5 8.47479 4.58714 9 4.69869V4.25C9 3.98655 9.13822 3.74242 9.36413 3.60688L10.5142 2.91684L6.75 1.54805L2.98581 2.91684Z" fill="#161616"/>
<path fill-rule="evenodd" clip-rule="evenodd" d="M16.5134 3.54775C16.3436 3.48408 16.1565 3.48408 15.9867 3.54775L11.9867 5.04775C11.7123 5.15062 11.523 5.40381 11.502 5.69602C11.4809 5.98823 11.6319 6.26597 11.8886 6.40716L13.3182 7.19345V8.06818C13.3182 9.68738 14.6308 11 16.25 11C17.8692 11 19.1818 9.68738 19.1818 8.06818V7.19345L20.6114 6.40716C20.8682 6.26597 21.0192 5.98823 20.9981 5.69602C20.977 5.40381 20.7877 5.15062 20.5134 5.04775L16.5134 3.54775ZM16.25 9.5C15.5377 9.5 14.9468 8.97982 14.8366 8.2986C15.1136 8.23792 15.564 8.17647 16.25 8.17647C16.936 8.17647 17.3864 8.23792 17.6634 8.2986C17.5532 8.97982 16.9623 9.5 16.25 9.5ZM16.25 6.67647C16.845 6.67647 17.3142 6.71735 17.6818 6.77634V6.75C17.6818 6.47648 17.8307 6.22465 18.0704 6.09284L18.4587 5.87926L16.25 5.051L14.0413 5.87926L14.4296 6.09284C14.6693 6.22465 14.8182 6.47648 14.8182 6.75V6.77634C15.1859 6.71735 15.655 6.67647 16.25 6.67647Z" fill="#161616"/>
<path fill-rule="evenodd" clip-rule="evenodd" d="M2.76973 12.0211C5.20868 10.6596 8.29181 10.6596 10.7308 12.0211C10.8007 12.0602 10.89 12.1073 10.9932 12.1618C11.4649 12.4109 12.2257 12.8125 12.7458 13.2898C13.0679 13.5854 13.4239 14.0171 13.4897 14.582C13.5619 15.2014 13.265 15.7443 12.7747 16.1822C11.9663 16.9043 10.9757 17.5 9.68967 17.5H3.81082C2.52474 17.5 1.53414 16.9043 0.725746 16.1822C0.235456 15.7443 -0.0614447 15.2014 0.0107655 14.582C0.0766306 14.0171 0.432629 13.5854 0.75472 13.2898C1.27479 12.8125 2.03556 12.4109 2.50734 12.1618C2.61045 12.1073 2.69975 12.0602 2.76973 12.0211ZM9.99963 13.3309C8.0151 12.223 5.48539 12.223 3.50086 13.3309C3.37897 13.3989 3.24911 13.4681 3.11577 13.5391C2.64419 13.7902 2.12903 14.0645 1.76889 14.395C1.54312 14.6022 1.50434 14.7243 1.50067 14.7558C1.5 14.7612 1.49812 14.7765 1.51527 14.813C1.53643 14.8581 1.59099 14.9438 1.72496 15.0635C2.38809 15.6558 3.0364 16 3.81082 16H9.68967C10.4641 16 11.1124 15.6558 11.7755 15.0635C11.9095 14.9438 11.9641 14.8581 11.9852 14.813C12.0024 14.7765 12.0006 14.7618 11.9999 14.7563C11.9962 14.7249 11.9574 14.6022 11.7316 14.395C11.3715 14.0645 10.8564 13.7902 10.3848 13.5391C10.2514 13.4681 10.1215 13.3989 9.99963 13.3309Z" fill="#161616"/>
<path fill-rule="evenodd" clip-rule="evenodd" d="M14.9606 13.684C16.163 13.3326 17.4861 13.4851 18.578 14.1352C18.6773 14.1943 18.7801 14.2528 18.8836 14.3116C19.2335 14.5105 19.5905 14.7135 19.8422 14.9599C19.953 15.0683 19.9872 15.1346 19.9972 15.1584C19.9858 15.1826 19.955 15.2308 19.8768 15.3052C19.3928 15.7664 18.9548 16 18.455 16H14.7502C14.336 16 14.0002 16.3358 14.0002 16.75C14.0002 17.1642 14.336 17.5 14.7502 17.5H18.455C19.5007 17.5 20.2919 16.9816 20.9115 16.3913C21.3081 16.0134 21.5507 15.5409 21.4919 15.0036C21.4383 14.5126 21.1476 14.1387 20.8914 13.8879C20.4815 13.4867 19.8786 13.1477 19.5282 12.9507C19.455 12.9095 19.3925 12.8744 19.3454 12.8464C17.8866 11.9777 16.1318 11.779 14.5398 12.2442C14.1423 12.3604 13.9141 12.7769 14.0303 13.1745C14.1465 13.5721 14.563 13.8002 14.9606 13.684ZM20.0003 15.151C20.0033 15.1434 20.0035 15.1397 20.0029 15.1397C20.0026 15.1397 20.0022 15.1404 20.0018 15.1416C20.0012 15.1434 20.0006 15.1466 20.0003 15.151Z" fill="#161616"/>
</svg>
