<svg width="301" height="79" viewBox="0 0 301 79" fill="none" xmlns="http://www.w3.org/2000/svg">
<path d="M160.999 35.1709V12.4256H154.571C152.802 12.4256 151.617 11.4147 151.617 9.72843C151.617 8.04215 152.781 7.03125 154.571 7.03125H173.953C175.722 7.03125 176.885 8.04651 176.885 9.72843C176.885 11.4104 175.7 12.4256 173.953 12.4256H167.504V35.1709C167.504 37.306 166.297 38.5565 164.249 38.5565C162.201 38.5565 160.994 37.306 160.994 35.1709H160.999Z" fill="#212121"/>
<path d="M173.392 31.5067C173.392 27.3019 176.626 24.8662 182.403 24.5219L188.225 24.1777V22.6483C188.225 20.4914 186.717 19.2409 184.342 19.2409C182.425 19.2409 181.257 19.8683 179.859 21.6766C179.17 22.4522 178.373 22.84 177.358 22.84C175.828 22.84 174.726 21.8465 174.726 20.4261C174.726 19.9293 174.835 19.4762 175.048 19.0012C176.125 16.243 179.833 14.5393 184.621 14.5393C190.552 14.5393 194.408 17.6025 194.408 22.2561V35.4283C194.408 37.5198 193.136 38.5961 191.345 38.5961C189.554 38.5961 188.456 37.6462 188.325 35.7943V34.6091H188.194C186.9 37.0667 184.011 38.5133 181.122 38.5133C176.726 38.5133 173.384 35.668 173.384 31.5067H173.392ZM188.225 29.6723V27.9904L183.353 28.291C181.005 28.4653 179.667 29.5198 179.667 31.1581C179.667 32.8836 181.092 33.9599 183.201 33.9599C185.959 33.9599 188.225 32.169 188.225 29.6679V29.6723Z" fill="#212121"/>
<path d="M198.612 35.3242V9.86002C198.612 7.70314 199.928 6.56152 201.758 6.56152C203.588 6.56152 204.904 7.70314 204.904 9.86002V35.3242C204.904 37.4811 203.61 38.6009 201.758 38.6009C199.906 38.6009 198.612 37.4811 198.612 35.3242Z" fill="#212121"/>
<path d="M208.248 31.5067C208.248 27.3019 211.481 24.8662 217.259 24.5219L223.08 24.1777V22.6483C223.08 20.4914 221.573 19.2409 219.198 19.2409C217.281 19.2409 216.113 19.8683 214.714 21.6766C214.026 22.4522 213.228 22.84 212.213 22.84C210.684 22.84 209.581 21.8465 209.581 20.4261C209.581 19.9293 209.69 19.4762 209.904 19.0012C210.98 16.243 214.688 14.5393 219.477 14.5393C225.407 14.5393 229.263 17.6025 229.263 22.2561V35.4283C229.263 37.5198 227.991 38.5961 226.2 38.5961C224.409 38.5961 223.311 37.6462 223.181 35.7943V34.6091H223.05C221.756 37.0667 218.867 38.5133 215.978 38.5133C211.581 38.5133 208.239 35.668 208.239 31.5067H208.248ZM223.08 29.6723V27.9904L218.209 28.291C215.86 28.4653 214.523 29.5198 214.523 31.1581C214.523 32.8836 215.947 33.9599 218.056 33.9599C220.814 33.9599 223.08 32.169 223.08 29.6679V29.6723Z" fill="#212121"/>
<path d="M233.312 35.3247V17.7734C233.312 15.6601 234.563 14.562 236.354 14.562C238.145 14.562 239.395 15.6601 239.395 17.7734V19.2156H239.526C240.498 16.4357 242.977 14.6012 246.123 14.6012C249.465 14.6012 251.792 16.3267 252.568 19.3464H252.698C253.731 16.4357 256.493 14.6012 259.879 14.6012C264.406 14.6012 267.448 17.708 267.448 22.3616V35.3203C267.448 37.4554 266.154 38.597 264.28 38.597C262.406 38.597 261.151 37.4554 261.151 35.3203V23.9346C261.151 21.2592 259.814 19.7952 257.378 19.7952C254.942 19.7952 253.413 21.5424 253.413 24.1089V35.3203C253.413 37.4554 252.249 38.597 250.371 38.597C248.493 38.597 247.352 37.4554 247.352 35.3203V23.7429C247.352 21.2636 245.949 19.7995 243.622 19.7995C241.295 19.7995 239.613 21.6078 239.613 24.1961V35.3203C239.613 37.4554 238.319 38.597 236.467 38.597C234.615 38.597 233.321 37.4554 233.321 35.3203L233.312 35.3247Z" fill="#212121"/>
<path d="M271.313 8.90971C271.313 7.07527 272.778 5.65479 274.677 5.65479C276.577 5.65479 278.041 7.07963 278.041 8.90971C278.041 10.7398 276.573 12.1646 274.677 12.1646C272.782 12.1646 271.313 10.7224 271.313 8.90971ZM271.527 35.3238V17.8597C271.527 15.8117 272.712 14.5612 274.673 14.5612C276.634 14.5612 277.823 15.8117 277.823 17.8597V35.3238C277.823 37.3718 276.616 38.6005 274.673 38.6005C272.73 38.6005 271.527 37.3718 271.527 35.3238Z" fill="#212121"/>
<path d="M281.554 35.6485C281.554 34.8293 281.789 34.2454 282.438 33.4698L293.087 19.9752V19.8445H283.968C282.373 19.8445 281.423 18.9599 281.423 17.4305C281.423 15.9011 282.351 15.0383 283.968 15.0383H297.419C299.275 15.0383 300.416 16.0928 300.416 17.7965C300.416 18.7028 300.138 19.4131 299.401 20.3412L289.571 33.2127V33.3217H298.456C300.05 33.3217 301 34.2062 301 35.7356C301 37.2651 300.05 38.1496 298.456 38.1496H284.268C282.608 38.1496 281.554 37.1561 281.554 35.6485Z" fill="#212121"/>
<path d="M152.333 70.1054C152.333 69.5651 152.486 68.833 152.764 68.0356L161.261 44.9026C162.167 42.3797 163.697 41.2163 166.154 41.2163C168.612 41.2163 170.207 42.3361 171.135 44.8808L179.675 68.0356C179.976 68.8766 180.085 69.4605 180.085 70.1054C180.085 71.8962 178.725 73.1686 176.83 73.1686C174.934 73.1686 174.028 72.3276 173.444 70.3015L171.806 65.3864H160.573L158.934 70.2361C158.329 72.3058 157.361 73.1686 155.636 73.1686C153.61 73.1686 152.337 71.9834 152.337 70.1054H152.333ZM170.294 60.3363L166.176 47.5954H166.024L161.993 60.3363H170.294Z" fill="#212121"/>
<path d="M183.479 69.9309V52.336C183.479 50.3316 184.708 49.1682 186.521 49.1682C188.334 49.1682 189.497 50.3316 189.497 52.336V53.8436H189.628C190.233 50.9765 192.129 49.2728 194.434 49.2728C195.275 49.2728 195.941 49.4645 196.395 49.8523C197 50.3273 197.301 51.1029 197.301 52.1791C197.301 53.1726 197 53.9264 196.395 54.4449C195.789 54.9635 194.887 55.2423 193.658 55.2641C190.791 55.3077 189.776 56.9243 189.776 59.6607V69.9222C189.776 72.0137 188.547 73.1989 186.63 73.1989C184.713 73.1989 183.484 72.0137 183.484 69.9222L183.479 69.9309Z" fill="#212121"/>
<path d="M197.939 61.3068C197.939 53.8688 202.275 49.1455 209.107 49.1455C215.94 49.1455 220.062 53.6292 220.062 59.9037C220.062 61.651 219.068 62.6401 217.325 62.6401H204.131V62.919C204.131 66.3482 206.201 68.5879 209.391 68.5879C211.696 68.5879 213.208 67.8123 214.911 65.8079C215.578 65.1195 216.14 64.8798 216.959 64.8798C218.319 64.8798 219.417 65.7426 219.417 67.1848C219.417 67.6816 219.264 68.2001 218.985 68.7143C217.456 71.5596 213.874 73.2415 209.412 73.2415C202.188 73.2415 197.944 68.7796 197.944 61.2981L197.939 61.3068ZM214.005 58.7839C213.874 55.7643 211.935 53.8035 209.177 53.8035C206.419 53.8035 204.41 55.8296 204.197 58.7839H214.005Z" fill="#212121"/>
<path d="M223.291 69.9309V52.336C223.291 50.3752 224.433 49.1682 226.332 49.1682C228.232 49.1682 229.478 50.3752 229.478 52.3578V53.6519H229.609C230.838 50.7848 233.165 49.2118 236.725 49.2118C241.858 49.2118 244.746 52.4449 244.746 57.8567V69.9309C244.746 72.0877 243.431 73.2076 241.6 73.2076C239.77 73.2076 238.45 72.0877 238.45 69.9309V59.1726C238.45 56.153 237.025 54.4275 234.202 54.4275C231.378 54.4275 229.587 56.4972 229.587 59.4951V69.9309C229.587 72.0877 228.293 73.2076 226.441 73.2076C224.589 73.2076 223.295 72.0877 223.295 69.9309H223.291Z" fill="#212121"/>
<path d="M247.819 66.1129C247.819 61.9081 251.052 59.4724 256.83 59.1281L262.651 58.7839V57.2545C262.651 55.0976 261.144 53.8471 258.769 53.8471C256.847 53.8471 255.684 54.4745 254.285 56.2828C253.597 57.0584 252.799 57.4462 251.784 57.4462C250.255 57.4462 249.152 56.4527 249.152 55.0323C249.152 54.5355 249.261 54.0824 249.475 53.6074C250.551 50.8492 254.259 49.1455 259.048 49.1455C264.978 49.1455 268.839 52.2087 268.839 56.8623V70.0345C268.839 72.126 267.566 73.2023 265.775 73.2023C263.985 73.2023 262.886 72.2524 262.756 70.4005V69.2154H262.625C261.331 71.6729 258.442 73.1195 255.553 73.1195C251.152 73.1195 247.814 70.2742 247.814 66.1129H247.819ZM262.651 64.2829V62.6009L257.78 62.9016C255.431 63.0759 254.093 64.1304 254.093 65.7687C254.093 67.4942 255.518 68.5705 257.627 68.5705C260.385 68.5705 262.651 66.7796 262.651 64.2785V64.2829Z" fill="#212121"/>
<path d="M69.3555 4.92651H0V49.0924H17.3378V73.9771H52.0177V49.0924H52.0657L52.0177 49.0444L69.3555 31.7066V4.92651Z" fill="#FB5002"/>
<path d="M38.8734 27.8306C40.8082 27.8306 42.3767 26.2621 42.3767 24.3273C42.3767 22.3925 40.8082 20.824 38.8734 20.824C36.9386 20.824 35.3701 22.3925 35.3701 24.3273C35.3701 26.2621 36.9386 27.8306 38.8734 27.8306Z" fill="white"/>
<path d="M25.224 27.8306C27.1588 27.8306 28.7273 26.2621 28.7273 24.3273C28.7273 22.3925 27.1588 20.824 25.224 20.824C23.2892 20.824 21.7207 22.3925 21.7207 24.3273C21.7207 26.2621 23.2892 27.8306 25.224 27.8306Z" fill="white"/>
<path d="M34.3646 42.9015C29.2186 42.9015 25.0312 38.7141 25.0312 33.5681V31.908H43.698V33.5681C43.698 38.7141 39.5106 42.9015 34.3646 42.9015ZM28.5825 35.2282C29.3058 37.7381 31.6239 39.5812 34.3646 39.5812C37.1054 39.5812 39.4235 37.7381 40.1468 35.2282H28.5868H28.5825Z" fill="white"/>
<path d="M101.063 0L69.3543 31.7083V49.094H52.0645L81.8816 78.9068L101.063 59.7259L120.239 78.9068L150.104 49.0461L101.063 0Z" fill="#8366FF"/>
<path d="M69.3534 31.7073V49.093H52.0636L52.0156 49.0451L69.3534 31.7073Z" fill="#812001"/>
<path d="M105.38 49.3324C102.378 49.3324 99.9375 46.8879 99.9375 43.8901C99.9375 40.8922 102.378 38.4478 105.38 38.4478C108.382 38.4478 110.822 40.8879 110.822 43.8901C110.822 46.8923 108.378 49.3324 105.38 49.3324ZM105.38 41.6199C104.129 41.6199 103.114 42.6351 103.114 43.8857C103.114 45.1363 104.129 46.1515 105.38 46.1515C106.63 46.1515 107.646 45.1363 107.646 43.8857C107.646 42.6351 106.63 41.6199 105.38 41.6199Z" fill="white"/>
<path d="M107.72 34.0667C104.87 34.0667 102.552 31.7486 102.552 28.8989H105.388C105.388 30.1843 106.434 31.2301 107.72 31.2301C109.005 31.2301 110.051 30.1843 110.051 28.8989H112.887C112.887 31.7486 110.569 34.0667 107.72 34.0667Z" fill="white"/>
<path d="M93.4256 34.0667C90.5759 34.0667 88.2578 31.7486 88.2578 28.8989H91.0944C91.0944 30.1843 92.1402 31.2301 93.4256 31.2301C94.711 31.2301 95.7568 30.1843 95.7568 28.8989H98.5934C98.5934 31.7486 96.2753 34.0667 93.4256 34.0667Z" fill="white"/>
</svg>
