<svg width="18" height="20" viewBox="0 0 18 20" fill="none" xmlns="http://www.w3.org/2000/svg">
<path d="M6.00049 9.932L8.00049 11.932L12.0005 7.932M17.0005 9.932C17.0005 14.3931 11.5405 17.6257 9.64191 18.615C9.43655 18.722 9.33388 18.7755 9.19144 18.8032C9.08049 18.8248 8.92049 18.8248 8.80954 18.8032C8.6671 18.7755 8.56442 18.722 8.35907 18.615C6.46045 17.6257 1.00049 14.3931 1.00049 9.932V6.1496C1.00049 5.35009 1.00049 4.95033 1.13125 4.6067C1.24676 4.30314 1.43447 4.03228 1.67815 3.81753C1.95398 3.57444 2.32829 3.43408 3.07689 3.15335L8.43869 1.14267C8.64659 1.06471 8.75053 1.02573 8.85747 1.01028C8.95232 0.996573 9.04865 0.996573 9.1435 1.01028C9.25044 1.02573 9.35439 1.06471 9.56229 1.14267L14.9241 3.15335C15.6727 3.43408 16.047 3.57444 16.3228 3.81753C16.5665 4.03228 16.7542 4.30314 16.8697 4.6067C17.0005 4.95033 17.0005 5.35009 17.0005 6.1496V9.932Z" stroke="black" stroke-width="2" stroke-linecap="round" stroke-linejoin="round"/>
</svg>
