<svg width="15" height="14" viewBox="0 0 15 14" fill="none" xmlns="http://www.w3.org/2000/svg">
<path fill-rule="evenodd" clip-rule="evenodd" d="M11.4193 0.240833C11.7466 0.564467 11.7495 1.0921 11.4258 1.41933L5.6566 7.25266C5.50007 7.41093 5.28671 7.5 5.0641 7.5C4.84149 7.5 4.62814 7.41093 4.4716 7.25266L1.9075 4.66006C1.58386 4.33283 1.58678 3.80521 1.91401 3.48157C2.24124 3.15794 2.76887 3.16085 3.0925 3.48808L5.0641 5.48159L10.2408 0.247344C10.5645 -0.0798858 11.0921 -0.0828008 11.4193 0.240833ZM14.7559 2.74408C15.0814 3.06952 15.0814 3.59715 14.7559 3.92259L5.58925 13.0893C5.26382 13.4147 4.73618 13.4147 4.41074 13.0893L0.244076 8.92259C-0.0813608 8.59715 -0.0813607 8.06951 0.244076 7.74408C0.569513 7.41864 1.09715 7.41864 1.42259 7.74408L5 11.3215L13.5774 2.74408C13.9029 2.41864 14.4305 2.41864 14.7559 2.74408Z" fill="white"/>
</svg>
