<svg width="20" height="22" viewBox="0 0 20 22" fill="none" xmlns="http://www.w3.org/2000/svg">
<path d="M1 10C1 5.02944 5.02944 1 10 1C14.9706 1 19 5.02944 19 10M1 10H3C4.10457 10 5 10.8954 5 12V14C5 15.1046 4.10457 16 3 16M1 10V15C1 15.5523 1.44772 16 2 16H3M19 10H17C15.8954 10 15 10.8954 15 12V14C15 15.1046 15.8954 16 17 16H18C18.5523 16 19 15.5523 19 15V10ZM3 16V17C3 18.1046 3.89543 19 5 19H7M7 19C7 19.8284 7.67157 20.5 8.5 20.5H9.5C10.3284 20.5 11 19.8284 11 19C11 18.1716 10.3284 17.5 9.5 17.5H8.5C7.67157 17.5 7 18.1716 7 19Z" stroke="black" stroke-width="2" stroke-linecap="round"/>
</svg>
