<svg width="18" height="20" viewBox="0 0 18 20" fill="none" xmlns="http://www.w3.org/2000/svg">
<path d="M9 1H4.2C3.0799 1 2.51984 1 2.09202 1.21799C1.71569 1.40973 1.40973 1.71569 1.21799 2.09202C1 2.51984 1 3.0799 1 4.2V15.8C1 16.9201 1 17.4802 1.21799 17.908C1.40973 18.2843 1.71569 18.5903 2.09202 18.782C2.51984 19 3.0799 19 4.2 19H6M9 1L15 7M9 1V5.4C9 5.96005 9 6.24008 9.10899 6.45399C9.20487 6.64215 9.35785 6.79513 9.54601 6.89101C9.75992 7 10.0399 7 10.6 7H15M15 7V8M5 15H7M5 11H8M5 7H6M16 16.0039V15C16 13.8954 15.1046 13 14 13C12.8954 13 12 13.8954 12 15V16.0039M12.5 19H15.5C15.9659 19 16.1989 19 16.3827 18.9239C16.6277 18.8224 16.8224 18.6277 16.9239 18.3827C17 18.1989 17 17.9659 17 17.5C17 17.0341 17 16.8011 16.9239 16.6173C16.8224 16.3723 16.6277 16.1776 16.3827 16.0761C16.1989 16 15.9659 16 15.5 16H12.5C12.0341 16 11.8011 16 11.6173 16.0761C11.3723 16.1776 11.1776 16.3723 11.0761 16.6173C11 16.8011 11 17.0341 11 17.5C11 17.9659 11 18.1989 11.0761 18.3827C11.1776 18.6277 11.3723 18.8224 11.6173 18.9239C11.8011 19 12.0341 19 12.5 19Z" stroke="black" stroke-width="2" stroke-linecap="round" stroke-linejoin="round"/>
</svg>
